<svg width="113" height="113" viewBox="0 0 113 113" fill="none" xmlns="http://www.w3.org/2000/svg">
<circle cx="56.5" cy="56.5" r="56" fill="#25D366" stroke="#ECE1CF"/>
<path d="M58.8594 28.5C59.1318 28.5619 59.4897 28.6585 59.8232 28.7021H59.8252C65.4448 29.4231 70.1525 31.2969 73.96 34.2832C77.7676 37.2697 80.7003 41.389 82.7402 46.6387C83.2193 47.8716 83.5171 49.1877 83.7676 50.5518C84.011 51.8778 84.2166 53.2907 84.5 54.6406V57.3193C84.3145 58.6566 84.1985 59.9314 83.9473 61.2051C80.4408 78.9799 61.1533 88.5494 44.8721 80.6377H44.8711C44.1111 80.2699 43.0976 80.2483 42.3242 80.418H42.3232C41.1802 80.6699 40.0408 80.9605 38.9072 81.2607L35.5264 82.1602C33.6036 82.656 31.682 83.1413 29.6348 83.6621C29.6597 83.5313 29.6837 83.4187 29.7148 83.3037L29.7139 83.3027C30.7854 79.3569 31.8329 75.4159 32.9551 71.4932C33.2615 70.429 33.1872 69.5471 32.6719 68.542V68.541C25.334 54.2632 31.6115 36.8775 46.4268 30.75C47.791 30.1859 49.2417 29.8074 50.7383 29.4756C52.1966 29.1523 53.7353 28.8654 55.2129 28.5H58.8594ZM80.499 52.5088C78.0716 35.5781 58.8842 26.7921 44.5352 35.7637L43.8555 36.2041C33.2972 43.2995 30.1966 57.1697 36.5801 68.1201L36.8906 68.6387C37.1111 68.9974 37.1986 69.6318 37.0908 70.0752L37.0898 70.0762C36.4977 72.5353 35.7869 74.9551 35.043 77.6729L34.8154 78.5039L35.6504 78.2891C38.3214 77.5994 40.8023 77.0073 43.2451 76.3018H43.2461C43.6357 76.1889 43.9572 76.1633 44.2529 76.2051C44.5497 76.247 44.8509 76.3609 45.1943 76.5674V76.5684C48.0175 78.2623 51.096 79.2671 54.3525 79.6172C69.8952 81.2898 82.717 67.978 80.499 52.5088Z" fill="white" stroke="#ECE1CF"/>
<path d="M45.8549 44.0703C46.5039 43.6408 47.2906 43.4817 48.3402 43.6152V43.6162C48.5099 43.6382 48.7482 43.7347 48.9789 43.8945C49.1529 44.0152 49.288 44.1479 49.3734 44.2656L49.4418 44.3779C50.1912 45.912 50.9005 47.4595 51.4291 49.0469L51.6439 49.7305C51.6972 49.9122 51.6746 50.2138 51.5453 50.5967C51.4209 50.9648 51.2217 51.3358 51.0199 51.6152C50.6183 52.1713 50.2915 52.618 50.0687 52.9932C49.8434 53.3726 49.6851 53.7426 49.6801 54.1514C49.675 54.562 49.8252 54.9353 50.0492 55.3203C50.1597 55.5103 50.2973 55.7174 50.4584 55.9473L51.0092 56.7109C53.2188 59.7294 56.0728 61.9367 59.558 63.2744H59.559C59.9107 63.409 60.3324 63.3838 60.6771 63.3057C60.9841 63.236 61.3123 63.1061 61.5677 62.916L61.6722 62.8311C62.4596 62.1297 63.0872 61.2475 63.6615 60.4385C63.8769 60.136 64.0586 60.0034 64.2094 59.9541C64.3462 59.9094 64.5396 59.9071 64.849 60.0557C66.6749 60.9329 68.4828 61.7189 70.2142 62.6768V62.6777C70.2672 62.7072 70.3894 62.8363 70.4994 63.0938C70.6027 63.3355 70.6495 63.5852 70.641 63.7451C70.5077 66.1472 68.9873 67.9285 66.5043 68.6035L66.2611 68.665C65.6244 68.8148 64.9963 68.8571 64.1927 68.9668C60.7791 68.5098 57.5869 67.2561 54.6683 65.335C50.8748 62.8399 47.8856 59.5353 45.4584 55.7217L44.9799 54.9521C43.3368 52.2421 42.7031 49.4312 44.057 46.4756C44.608 45.2737 45.1913 44.5095 45.8549 44.0703Z" fill="white" stroke="#ECE1CF"/>
</svg>
